<svg width="14" height="14" viewBox="0 0 14 14" xmlns="http://www.w3.org/2000/svg">
<g id="fi:map-pin" clip-path="url(#clip0_2963_76012)">
<path id="Vector" d="M12.25 5.83337C12.25 9.91671 7.00003 13.4167 7.00003 13.4167C7.00003 13.4167 1.75003 9.91671 1.75003 5.83337C1.75003 4.44099 2.30315 3.10563 3.28772 2.12106C4.27229 1.1365 5.60764 0.583374 7.00003 0.583374C8.39242 0.583374 9.72778 1.1365 10.7123 2.12106C11.6969 3.10563 12.25 4.44099 12.25 5.83337Z" stroke-width="1.25" stroke-linecap="round" stroke-linejoin="round"/>
<path id="Vector_2" d="M7.00002 7.58337C7.96651 7.58337 8.75002 6.79987 8.75002 5.83337C8.75002 4.86688 7.96651 4.08337 7.00002 4.08337C6.03352 4.08337 5.25002 4.86688 5.25002 5.83337C5.25002 6.79987 6.03352 7.58337 7.00002 7.58337Z" stroke-width="1.25" stroke-linecap="round" stroke-linejoin="round"/>
</g>
<defs>
<clipPath id="clip0_2963_76012">
<rect width="14" height="14" fill="white"/>
</clipPath>
</defs>
</svg>
